# xmcd
#
# Track frame offsets:
#	150
#	38276
#	86247
#	141505
#
# Disc length: 2521 seconds
# Revision: 1
# Processed by: cddbd v1.5.2PL0 Copyright (c) Steve Scherf et al.
# Submitted via: dBpowerAMP V12.0
#
DISCID=2e09d704
DTITLE=Lester Levenson - A Fireside Chat with Lester Levenson CD 03
DYEAR=1974
DGENRE=Home Study
TTITLE0=Communication and Love pt 1
TTITLE1=Communication and Love pt 2
TTITLE2=Communication and Love pt 3
TTITLE3=Beingness Never Changes
EXTD=
EXTT0=
EXTT1=
EXTT2=
EXTT3=
PLAYORDER=
